<?xml version="1.0" encoding="UTF-8"?>
<svg enable-background="new 0 0 329.015 329.015" version="1.1" viewBox="0 0 329.02 329.02" xml:space="preserve" xmlns="http://www.w3.org/2000/svg">
<g fill="#61dafb">
	<path d="m164.51 71.909c-51.059 0-92.599 41.54-92.599 92.599s41.54 92.599 92.599 92.599 92.599-41.54 92.599-92.599-41.539-92.599-92.599-92.599zm0 167.2c-41.134 0-74.599-33.465-74.599-74.599s33.465-74.599 74.599-74.599 74.599 33.465 74.599 74.599-33.464 74.599-74.599 74.599z"/>
	<path d="m164.51 137.64c-14.815 0-26.869 12.053-26.869 26.869s12.053 26.869 26.869 26.869 26.869-12.053 26.869-26.869c1e-3 -14.816-12.054-26.869-26.869-26.869zm0 35.737c-4.89 0-8.869-3.979-8.869-8.869s3.979-8.869 8.869-8.869 8.869 3.979 8.869 8.869c1e-3 4.89-3.979 8.869-8.869 8.869z"/>
	<path d="m320.02 155.51h-8.934c-4.486-73.823-63.749-133.09-137.57-137.57v-8.935c0-4.971-4.029-9-9-9s-9 4.029-9 9v8.934c-73.825 4.486-133.09 63.751-137.58 137.57h-8.935c-4.971 0-9 4.029-9 9s4.029 9 9 9h8.934c4.486 73.823 63.75 133.09 137.57 137.57v8.934c0 4.971 4.029 9 9 9s9-4.029 9-9v-8.934c73.823-4.486 133.09-63.75 137.57-137.57h8.934c4.971 0 9-4.029 9-9s-4.027-9-8.998-9zm-26.969 17.978c-4.42 63.912-55.649 115.14-119.56 119.56-0.228-4.768-4.154-8.566-8.978-8.566s-8.75 3.798-8.978 8.566c-63.912-4.421-115.14-55.65-119.56-119.56 4.768-0.228 8.566-4.154 8.566-8.978s-3.798-8.75-8.566-8.978c4.42-63.911 55.649-115.14 119.56-119.56 0.228 4.768 4.154 8.566 8.978 8.566s8.75-3.798 8.978-8.566c63.912 4.421 115.14 55.65 119.56 119.56-4.768 0.228-8.566 4.154-8.566 8.978s3.798 8.75 8.566 8.978z"/>
</g>
</svg>